Hanif_Shallow_7_5_grf.mot
version=1
nRows=21
nColumns=19
inDegrees=yes
endheader
time	right_ground_force_vx	right_ground_force_vy	right_ground_force_vz	right_ground_force_px	right_ground_force_py	right_ground_force_pz	right_ground_torque_x	right_ground_torque_y	right_ground_torque_z	left_ground_force_vx	left_ground_force_vy	left_ground_force_vz	left_ground_force_px	left_ground_force_py	left_ground_force_pz	left_ground_torque_x	left_ground_torque_y	left_ground_torque_z
0.800000	-5.200740	298.231000	55.670700	0.231776	0.000000	-1.422580	-24.880700	-2.017620	9.511230	-3.504470	293.121000	-55.014000	0.221159	0.000000	-0.974859	21.096000	-1.305430	6.712980
0.805000	-5.455500	297.327000	55.470800	0.231661	0.000000	-1.421750	-25.054500	-2.015380	9.450960	-4.216770	292.970000	-55.100000	0.221040	0.000000	-0.974643	21.029000	-1.301660	6.683810
0.810000	-5.194730	298.166000	55.251200	0.231620	0.000000	-1.422620	-24.864200	-1.991590	9.462920	-4.169450	292.609000	-54.968700	0.221551	0.000000	-0.975131	21.146400	-1.332470	6.835460
0.815000	-5.264940	296.739000	55.048400	0.231321	0.000000	-1.422010	-24.926800	-1.980770	9.328700	-4.169520	292.547000	-54.897600	0.221592	0.000000	-0.974792	21.041800	-1.279390	6.835260
0.820000	-5.245860	297.467000	55.300000	0.231402	0.000000	-1.421610	-25.108300	-1.891980	9.394340	-4.361280	293.428000	-54.779000	0.221809	0.000000	-0.975134	21.207700	-1.291990	6.922280
0.825000	-5.012150	297.769000	55.226500	0.231179	0.000000	-1.422370	-24.904600	-1.931580	9.323030	-4.348590	294.084000	-54.783500	0.221371	0.000000	-0.975046	21.228200	-1.264620	6.797030
0.830000	-4.923690	297.548000	55.170100	0.231505	0.000000	-1.422190	-24.941500	-1.964680	9.408820	-4.697440	294.438000	-54.904500	0.220802	0.000000	-0.975408	21.363800	-1.287160	6.641270
0.835000	-5.248110	297.998000	55.233100	0.231108	0.000000	-1.422040	-25.024400	-1.916630	9.314880	-4.721960	294.444000	-54.712900	0.221519	0.000000	-0.975376	21.356500	-1.347170	6.868760
0.840000	-5.261900	297.862000	55.410200	0.230881	0.000000	-1.422180	-24.971100	-1.968980	9.232490	-4.437270	295.979000	-55.043300	0.220832	0.000000	-0.974435	21.184500	-1.278450	6.675910
0.845000	-5.049980	296.799000	55.643800	0.230787	0.000000	-1.421540	-25.071500	-1.895540	9.183450	-4.293520	295.746000	-55.337100	0.220409	0.000000	-0.975530	21.490100	-1.297230	6.548290
0.850000	-5.036820	296.133000	55.513000	0.230649	0.000000	-1.421370	-25.063900	-1.983500	9.103240	-3.810990	295.443000	-55.372300	0.220470	0.000000	-0.974985	21.302500	-1.323580	6.559680
0.855000	-5.040320	296.459000	55.827500	0.230824	0.000000	-1.422440	-24.776000	-1.935490	9.176900	-3.259520	295.749000	-55.015300	0.220039	0.000000	-0.974702	21.235400	-1.339180	6.424100
0.860000	-5.145230	295.938000	55.329000	0.230149	0.000000	-1.422460	-24.726400	-1.903280	8.958720	-3.377460	294.422000	-55.787300	0.220056	0.000000	-0.974749	21.156700	-1.444780	6.436550
0.865000	-5.251500	294.880000	55.805700	0.230415	0.000000	-1.420970	-25.078300	-1.869850	9.020670	-3.204800	296.550000	-55.329700	0.219813	0.000000	-0.974650	21.277500	-1.417300	6.387210
0.870000	-5.253210	295.485000	55.269300	0.230319	0.000000	-1.422900	-24.559000	-1.911490	8.996450	-3.641180	296.426000	-55.467000	0.218927	0.000000	-0.974411	21.201200	-1.389160	6.115620
0.875000	-5.276490	296.831000	55.343800	0.230435	0.000000	-1.422550	-24.775300	-1.895060	9.076990	-3.700640	297.200000	-55.942800	0.218688	0.000000	-0.974283	21.219700	-1.460260	6.075460
0.880000	-5.253910	297.018000	55.088900	0.230223	0.000000	-1.421850	-24.996600	-1.917960	9.011700	-4.118680	297.121000	-55.981300	0.218435	0.000000	-0.974296	21.222300	-1.455300	6.001430
0.885000	-5.378490	296.847000	54.820100	0.230465	0.000000	-1.422320	-24.845800	-1.869850	9.089590	-4.020290	299.394000	-56.059300	0.218440	0.000000	-0.974096	21.322200	-1.410030	6.032030
0.890000	-5.157340	296.394000	55.228800	0.229640	0.000000	-1.421760	-24.972100	-1.786500	8.838340	-3.802330	298.150000	-56.381000	0.217371	0.000000	-0.973596	21.083200	-1.498580	5.698550
0.895000	-5.454250	296.085000	54.857600	0.229138	0.000000	-1.422670	-24.676600	-1.843040	8.666110	-3.735930	300.376000	-55.669500	0.216845	0.000000	-0.973411	21.184500	-1.584180	5.575890
0.900000	-5.015010	296.332000	54.504400	0.229241	0.000000	-1.422590	-24.721700	-1.786510	8.706420	-3.595500	301.316000	-56.335400	0.216279	0.000000	-0.973146	21.169600	-1.643860	5.431060
